Run_50001
nRows=4
nColumns=164

# SIMM Motion File Header:
name Run_50001
datacolumns 164
datarows 4
otherdata 1
range 1.19166700 1.21666700
endheader
time	pelvis_tilt	pelvis_list	pelvis_rotation	pelvis_tx	pelvis_ty	pelvis_tz	hip_flexion_r	hip_adduction_r	hip_rotation_r	knee_angle_r	ankle_angle_r	hip_flexion_l	hip_adduction_l	hip_rotation_l	knee_angle_l	ankle_angle_l	lumbar_extension	lumbar_bending	lumbar_rotation	arm_flex_r	arm_add_r	arm_rot_r	elbow_flex_r	pro_sup_r	arm_flex_l	arm_add_l	arm_rot_l	elbow_flex_l	pro_sup_l	subtalar_angle_r	mtp_angle_r	subtalar_angle_l	mtp_angle_l	wrist_flex_r	wrist_dev_r	wrist_flex_l	wrist_dev_l	RASI_tx	RASI_ty	RASI_tz	LPSI_tx	LPSI_ty	LPSI_tz	RPSI_tx	RPSI_ty	RPSI_tz	RTH3_tx	RTH3_ty	RTH3_tz	LTH1_tx	LTH1_ty	LTH1_tz	LTH2_tx	LTH2_ty	LTH2_tz	LTH3_tx	LTH3_ty	LTH3_tz	RTB1_tx	RTB1_ty	RTB1_tz	RTB2_tx	RTB2_ty	RTB2_tz	RTB3_tx	RTB3_ty	RTB3_tz	LTB1_tx	LTB1_ty	LTB1_tz	LTB2_tx	LTB2_ty	LTB2_tz	LTB3_tx	LTB3_ty	LTB3_tz	RCAL_tx	RCAL_ty	RCAL_tz	RTOE_tx	RTOE_ty	RTOE_tz	RMT5_tx	RMT5_ty	RMT5_tz	LCAL_tx	LCAL_ty	LCAL_tz	LTOE_tx	LTOE_ty	LTOE_tz	LMT5_tx	LMT5_ty	LMT5_tz	LACR_tx	LACR_ty	LACR_tz	RACR_tx	RACR_ty	RACR_tz	CLAV_tx	CLAV_ty	CLAV_tz	C7_tx	C7_ty	C7_tz	RUA1_tx	RUA1_ty	RUA1_tz	RUA2_tx	RUA2_ty	RUA2_tz	RUA3_tx	RUA3_ty	RUA3_tz	RLEL_tx	RLEL_ty	RLEL_tz	LUA1_tx	LUA1_ty	LUA1_tz	LUA2_tx	LUA2_ty	LUA2_tz	LUA3_tx	LUA3_ty	LUA3_tz	LLEL_tx	LLEL_ty	LLEL_tz	LMEL_tx	LMEL_ty	LMEL_tz	RFAsuperior_tx	RFAsuperior_ty	RFAsuperior_tz	RFAradius_tx	RFAradius_ty	RFAradius_tz	RFAulna_tx	RFAulna_ty	RFAulna_tz	LFAsuperior_tx	LFAsuperior_ty	LFAsuperior_tz	LFAradius_tx	LFAradius_ty	LFAradius_tz	LFAulna_tx	LFAulna_ty	LFAulna_tz	LASI_tx	LASI_ty	LASI_tz	RTH1_tx	RTH1_ty	RTH1_tz	RMEL_tx	RMEL_ty	RMEL_tz	RTH2_tx	RTH2_ty	RTH2_tz
      1.19166700	     -8.12378433	      5.87184807	      2.40253787	      1.00762678	      0.98760612	     -0.32744522	    -28.23395181	     -0.36802200	      3.95906196	    -20.01550052	    -23.56124334	     45.30903983	     13.29305445	     11.86053122	    -25.18792777	      8.72423839	      1.52928781	     -6.95054831	     10.95461892	    -21.23912211	    -28.36185209	      6.19011952	    113.12410501	    109.42584365	    -56.61801515	    -28.36976896	     -1.54293612	    108.94565803	    123.33604743	      0.00000000	      0.00000000	      0.00000000	      0.00000000	      0.00000000	      0.00000000	      0.00000000	      0.00000000	      1.02423174	      0.99204650	     -0.21271179	      0.85781072	      1.06691913	     -0.36126123	      0.86404646	      1.06454456	     -0.26325351	      0.73722105	      0.65234965	     -0.20747449	      1.02550632	      0.86667295	     -0.49378739	      1.13402815	      0.81098234	     -0.46511068	      1.14248444	      0.68135201	     -0.44146617	      0.59355422	      0.46121302	     -0.27692276	      0.52887655	      0.45141988	     -0.20750207	      0.48133704	      0.40131128	     -0.27184622	      1.26215606	      0.49703081	     -0.35813192	      1.24583914	      0.41667289	     -0.43488937	      1.27653417	      0.32561957	     -0.36035173	      0.30463245	      0.40794023	     -0.25381418	      0.33993227	      0.21108129	     -0.32646346	      0.31826151	      0.20558810	     -0.23273840	      1.21169719	      0.15597942	     -0.36923384	      1.39870191	      0.22859868	     -0.31245556	      1.41184419	      0.20025447	     -0.39809249	      0.93104586	      1.48216256	     -0.50401298	      1.01265633	      1.48422572	     -0.13152972	      1.02450119	      1.46773177	     -0.30809481	      0.89721054	      1.52281321	     -0.31538566	      0.99266617	      1.35570269	     -0.06125383	      0.91786791	      1.34914393	     -0.04816752	      0.97166444	      1.28551067	     -0.01396091	      0.95190136	      1.21683202	      0.01328331	      0.82638252	      1.41544696	     -0.56064261	      0.75075670	      1.41053281	     -0.53715902	      0.77403536	      1.34842541	     -0.58471038	      0.69372715	      1.31253494	     -0.60120732	      0.66759326	      1.32017437	     -0.51854273	      1.04581981	      1.19923039	     -0.06931789	      1.09750238	      1.18148509	     -0.17840304	      1.12210634	      1.12806019	     -0.13796958	      0.77464371	      1.21376288	     -0.58359887	      0.85554441	      1.15312626	     -0.49794435	      0.83417850	      1.11732236	     -0.55260404	      1.01594690	      1.03098237	     -0.44244144	      0.88930066	      0.85961323	     -0.15117186	      0.89532760	      1.18954642	     -0.04381967	     -0.00000000	     -0.00000000	      0.00000000
      1.20000000	     -7.74600160	      4.65158530	      2.04860591	      1.00770722	      0.98744731	     -0.32612733	    -27.05515175	      0.81655757	      3.77825201	    -26.70394200	    -22.88215114	     43.18217950	     11.74891792	     13.65819511	    -19.89855976	      8.70642053	      1.13959113	     -5.70427975	     11.17928156	    -21.38249184	    -28.37275453	      6.78362374	    112.10386123	    109.66108672	    -55.82377723	    -28.10864379	     -1.63534570	    108.73087496	    124.06150836	      0.00000000	      0.00000000	      0.00000000	      0.00000000	      0.00000000	      0.00000000	      0.00000000	      0.00000000	      1.02425670	      0.99416364	     -0.21139768	      0.85741776	      1.06589567	     -0.36198503	      0.86296567	      1.06581931	     -0.26405432	      0.74414592	      0.64671411	     -0.20644169	      1.02275294	      0.86120401	     -0.49464586	      1.13155304	      0.80381117	     -0.46713178	      1.13635607	      0.67344918	     -0.44136371	      0.59185767	      0.46439656	     -0.27489832	      0.52520385	      0.46183869	     -0.20534245	      0.47413019	      0.41489279	     -0.26895610	      1.26079406	      0.49200883	     -0.35701099	      1.24961931	      0.41108963	     -0.43345647	      1.28504726	      0.32261176	     -0.35763704	      0.29823627	      0.43676468	     -0.25046902	      0.31830857	      0.23844169	     -0.32422585	      0.29598332	      0.23418697	     -0.23057643	      1.23071440	      0.14881036	     -0.36677699	      1.41185566	      0.23436855	     -0.30811618	      1.42846251	      0.20508717	     -0.39292496	      0.93121008	      1.48120567	     -0.50490398	      1.01269194	      1.48382895	     -0.13190466	      1.02526390	      1.46790484	     -0.30910094	      0.89796740	      1.52266065	     -0.31639917	      0.99213077	      1.35521892	     -0.06187491	      0.91736655	      1.34865660	     -0.04846469	      0.97101045	      1.28518199	     -0.01434466	      0.95097571	      1.21651961	      0.01227007	      0.82676189	      1.41319852	     -0.56104400	      0.75132754	      1.40750599	     -0.53722857	      0.77486811	      1.34603768	     -0.58527592	      0.69499402	      1.30950925	     -0.60180133	      0.66910446	      1.31629882	     -0.51913270	      1.04458427	      1.19562280	     -0.07024263	      1.09507378	      1.17608211	     -0.17966096	      1.11887366	      1.12264141	     -0.13876363	      0.77700370	      1.21148018	     -0.58466752	      0.85830322	      1.15101228	     -0.49921871	      0.83792512	      1.11533684	     -0.55425097	      1.01553782	      1.02865837	     -0.43997176	      0.89072041	      0.86146244	     -0.15152765	      0.89351419	      1.19005541	     -0.04440923	     -0.00000000	     -0.00000000	      0.00000000
      1.20833300	     -7.21067896	      3.66508870	      1.84853726	      1.00748725	      0.98679655	     -0.32503656	    -25.62418696	      1.64480798	      2.73329452	    -34.05087284	    -22.61604335	     41.04722548	     10.45621651	     14.86193977	    -15.55625384	      8.34223524	      0.44510292	     -4.75179540	     11.03346106	    -21.44558703	    -28.26504364	      7.32783629	    110.67490927	    109.83161669	    -54.88286711	    -27.69488125	     -1.79527821	    108.42517374	    124.65178376	      0.00000000	      0.00000000	      0.00000000	      0.00000000	      0.00000000	      0.00000000	      0.00000000	      0.00000000	      1.02427701	      0.99561725	     -0.21013095	      0.85660847	      1.06364816	     -0.36246800	      0.86139408	      1.06586814	     -0.26483202	      0.75234086	      0.63967972	     -0.20530295	      1.01940731	      0.85544381	     -0.49584318	      1.12806399	      0.79536093	     -0.46972692	      1.12901572	      0.66511679	     -0.44078757	      0.59314885	      0.46641490	     -0.27252072	      0.52462678	      0.47253220	     -0.20303233	      0.47063949	      0.42796623	     -0.26573406	      1.25788730	      0.48650102	     -0.35548965	      1.24961911	      0.40564412	     -0.43193118	      1.28964306	      0.31956528	     -0.35526019	      0.29743875	      0.46631266	     -0.24824481	      0.30093915	      0.26653118	     -0.32067610	      0.27601034	      0.26502111	     -0.22764556	      1.24282350	      0.14311262	     -0.36504053	      1.41946577	      0.23677392	     -0.30466008	      1.43845771	      0.20746260	     -0.38915802	      0.93208325	      1.47988787	     -0.50603761	      1.01233793	      1.48280874	     -0.13236029	      1.02603011	      1.46745910	     -0.31002875	      0.89889106	      1.52216053	     -0.31793708	      0.99055272	      1.35415543	     -0.06241450	      0.91573270	      1.34751291	     -0.04938445	      0.96908564	      1.28396575	     -0.01499093	      0.94851439	      1.21552155	      0.01101355	      0.82784244	      1.41006199	     -0.56165522	      0.75266587	      1.40341576	     -0.53751588	      0.77681196	      1.34245901	     -0.58587000	      0.69748964	      1.30502963	     -0.60262286	      0.67178865	      1.31100959	     -0.51999539	      1.04230908	      1.19038447	     -0.07061951	      1.09215966	      1.16831955	     -0.17990350	      1.11440730	      1.11501413	     -0.13820206	      0.78055410	      1.20759937	     -0.58578455	      0.86208044	      1.14741991	     -0.50055143	      0.84257704	      1.11179298	     -0.55587234	      1.01469218	      1.02639987	     -0.43736232	      0.89380118	      0.86086626	     -0.15145429	      0.89074955	      1.18992257	     -0.04560566	      0.00000000	      0.00000000	     -0.00000000
      1.21666700	     -6.55019074	      2.99117702	      1.81774941	      1.00715477	      0.98562427	     -0.32428865	    -24.12710181	      2.07916822	      1.40953591	    -41.65542426	    -22.50387398	     38.99951694	      9.58225648	     15.27335898	    -12.37547897	      7.84634565	     -0.48152274	     -4.17283204	     10.56583351	    -21.53543247	    -28.02527192	      7.76150697	    108.91651749	    109.77659420	    -53.82495187	    -27.20864414	     -2.00685050	    108.05495021	    125.04645308	      0.00000000	      0.00000000	      0.00000000	      0.00000000	      0.00000000	      0.00000000	      0.00000000	      0.00000000	      1.02430277	      0.99615719	     -0.20905492	      0.85550956	      1.06043224	     -0.36267406	      0.85981444	      1.06455943	     -0.26544752	      0.76140411	      0.63184774	     -0.20390484	      1.01611007	      0.84970519	     -0.49721750	      1.12360074	      0.78599110	     -0.47196685	      1.12151103	      0.65718481	     -0.43974687	      0.59693446	      0.46768060	     -0.27017885	      0.52777061	      0.48254944	     -0.20103277	      0.47078842	      0.44077954	     -0.26292680	      1.25377087	      0.48061993	     -0.35387108	      1.24602105	      0.39973081	     -0.43026661	      1.29047219	      0.31586101	     -0.35310286	      0.30202987	      0.49586885	     -0.24697883	      0.28813461	      0.29533379	     -0.31631378	      0.26041850	      0.29788661	     -0.22404167	      1.24795405	      0.13778808	     -0.36294565	      1.42219972	      0.23541589	     -0.30251213	      1.44191712	      0.20656049	     -0.38708793	      0.93362010	      1.47809621	     -0.50739291	      1.01183141	      1.48110731	     -0.13301644	      1.02677632	      1.46619464	     -0.31084084	      0.89989222	      1.52119634	     -0.31981912	      0.98811307	      1.35263664	     -0.06292414	      0.91313012	      1.34601299	     -0.05100076	      0.96599492	      1.28202771	     -0.01590233	      0.94459221	      1.21396167	      0.00963959	      0.82954861	      1.40607262	     -0.56259623	      0.75465407	      1.39832118	     -0.53818070	      0.77975019	      1.33770883	     -0.58657766	      0.70111403	      1.29915238	     -0.60367750	      0.67547171	      1.30445930	     -0.52109649	      1.03881072	      1.18385994	     -0.07040458	      1.08865733	      1.15862829	     -0.17900984	      1.10852429	      1.10546746	     -0.13628988	      0.78519602	      1.20222978	     -0.58698252	      0.86684549	      1.14252011	     -0.50197630	      0.84806627	      1.10684223	     -0.55749482	      1.01355766	      1.02433472	     -0.43517381	      0.89837245	      0.85763984	     -0.15127939	      0.88718470	      1.18924076	     -0.04737092	      0.00000000	      0.00000000	     -0.00000000
